<svg width="681" height="162" viewBox="0 0 681 162" fill="none" xmlns="http://www.w3.org/2000/svg">
<path d="M635.5 161H486V125H632C638.8 125 640.833 119.667 641 117V110C641 104.8 634.667 103.167 631.5 103L523.5 100C496.3 100 487.833 77.6667 487 66.5V40.5C487 17.3 515.667 9.16667 530 8H672V44.5H532.5C526.9 44.9 525.833 48.6667 526 50.5V58C526.4 61.6 530.5 63.5 532.5 64C551.333 64.6667 598 66 634 66C670 66 680 90.3333 680.5 102.5V120C680.5 152.4 650.5 160.833 635.5 161Z" fill="#1E2A3A" stroke="black"/>
<path d="M459 161H418V63H459V161Z" fill="#1E2A3A"/>
<path d="M459 44H418V9H459V44Z" fill="#1E2A3A"/>
<path d="M459 161H418V63H459V161Z" stroke="black"/>
<path d="M459 44H418V9H459V44Z" stroke="black"/>
<path d="M198 110.032H159C159 122.832 152 126.032 148.5 126.032H55.5C45.5 126.032 42 117.032 41.5 112.532V52.5324C41.5 46.5324 49.1667 44.3657 53 44.0324H143.5C156.7 44.0324 159.333 54.3657 159 59.5324H198C202 16.7324 172.667 7.36574 157.5 8.03241H46C14 8.03241 2.66667 36.3657 1 50.5324V117.532C1 150.732 30.3333 160.366 45 161.032H161C186.6 161.832 196.333 137.366 198 125.032V110.032Z" fill="#1E2A3A" stroke="black"/>
<path d="M635.5 154H486V118H632C638.8 118 640.833 112.667 641 110V103C641 97.8 634.667 96.1667 631.5 96L523.5 93C496.3 93 487.833 70.6667 487 59.5V33.5C487 10.3 515.667 2.16667 530 1H672V37.5H532.5C526.9 37.9 525.833 41.6667 526 43.5V51C526.4 54.6 530.5 56.5 532.5 57C551.333 57.6667 598 59 634 59C670 59 680 83.3333 680.5 95.5V113C680.5 145.4 650.5 153.833 635.5 154Z" fill="white" stroke="black"/>
<path d="M459 154H418V56H459V154Z" fill="white"/>
<path d="M459 37H418V2H459V37Z" fill="white"/>
<path d="M459 154H418V56H459V154Z" stroke="black"/>
<path d="M459 37H418V2H459V37Z" stroke="black"/>
<path d="M198 103.032H159C159 115.832 152 119.032 148.5 119.032H55.5C45.5 119.032 42 110.032 41.5 105.532V45.5324C41.5 39.5324 49.1667 37.3657 53 37.0324H143.5C156.7 37.0324 159.333 47.3657 159 52.5324H198C202 9.73241 172.667 0.365744 157.5 1.03241H46C14 1.03241 2.66667 29.3657 1 43.5324V110.532C1 143.732 30.3333 153.366 45 154.032H161C186.6 154.832 196.333 130.366 198 118.032V103.032Z" fill="white" stroke="black"/>
<path d="M247.541 161H200L279.579 8H337.455L416 161H370.01L309.033 41L247.541 161Z" fill="#1E2A3A" stroke="black"/>
<path d="M351.5 119H267L280.5 92H338.5L351.5 119Z" fill="#34B4E3" stroke="black"/>
<path d="M249.5 154H203.5L280.5 1H336.5L412.5 154H368L309 34L249.5 154Z" fill="white" stroke="black"/>
</svg>
